<svg width="261" height="145" viewBox="0 0 261 145" fill="none" xmlns="http://www.w3.org/2000/svg">
<g clip-path="url(#clip0_3570_1991)">
<rect width="261" height="145" rx="10" fill="black" fill-opacity="0.22"/>
<path d="M169.92 81.8419C165.135 101.033 145.696 112.712 126.503 107.927C107.318 103.143 95.6383 83.7037 100.424 64.5133C105.207 45.3196 124.644 33.6389 143.832 38.4236C163.025 43.2083 174.705 62.6494 169.92 81.8419Z" fill="url(#paint0_linear_3570_1991)"/>
<path d="M144.882 67.4307C144.523 64.2794 141.779 63.2687 138.333 63.0273L138.257 58.6486L135.591 58.6956L135.666 62.9589C134.966 62.9711 134.25 62.9974 133.538 63.024L133.464 58.7325L130.8 58.7789L130.875 63.1564C130.299 63.1782 129.732 63.1988 129.179 63.2088L129.179 63.1953L125.503 63.2582L125.553 66.1048C125.553 66.1048 127.521 66.0329 127.489 66.0697C128.568 66.0512 128.931 66.6716 129.042 67.2109L129.129 72.1992C129.204 72.1983 129.301 72.1997 129.412 72.2128L129.131 72.2179L129.251 79.2062C129.21 79.5468 129.02 80.092 128.265 80.1065C128.3 80.1361 126.328 80.1398 126.328 80.1398L125.854 83.3328L129.323 83.2719C129.969 83.2614 130.604 83.2612 131.227 83.2545L131.305 87.6838L133.968 87.6377L133.892 83.2558C134.623 83.2583 135.33 83.2518 136.021 83.2391L136.096 87.6007L138.761 87.5539L138.685 83.1332C143.161 82.7979 146.278 81.6141 146.593 77.4005C146.848 74.0067 145.229 72.5225 142.674 71.9554C144.206 71.1401 145.148 69.7366 144.882 67.4307ZM141.318 76.9653C141.376 80.2749 135.704 79.9979 133.897 80.0307L133.795 74.1631C135.602 74.132 141.255 73.514 141.318 76.9653ZM139.933 68.7087C139.985 71.7197 135.252 71.4509 133.747 71.4774L133.654 66.1558C135.16 66.1292 139.878 65.5681 139.933 68.7087Z" fill="white"/>
<circle cx="135" cy="72.999" r="61.5" stroke="#7AB8FE" stroke-opacity="0.12" stroke-dasharray="10 10"/>
<circle cx="135" cy="72.999" r="97.5" stroke="#7AB8FE" stroke-opacity="0.12" stroke-dasharray="10 10"/>
<circle cx="135" cy="72.999" r="135.5" stroke="#7AB8FE" stroke-opacity="0.12" stroke-dasharray="10 10"/>
<path d="M171 73C171 92.8822 154.882 109 135 109C115.118 109 99 92.8822 99 73C99 53.1177 115.118 37 135 37C154.882 37 171 53.1177 171 73Z" fill="white"/>
<path fill-rule="evenodd" clip-rule="evenodd" d="M110.524 69.1249L110.505 62.4315C110.352 61.1106 110.886 59.9973 112.116 59.0916C112.116 59.0916 130.665 48.6796 134.587 46.5945C134.899 46.4302 135.337 46.4189 135.65 46.5854C139.478 48.6591 157.553 59.03 157.553 59.03C158.582 59.6186 159.296 60.5197 159.51 61.9205L159.481 69.1249H154.649V64.309C154.617 63.604 154.263 63.2208 153.755 62.9972L136.159 52.5579H133.953L115.821 62.3995L115.403 63.5927L115.387 69.1249H110.524Z" fill="#5620C8"/>
<path fill-rule="evenodd" clip-rule="evenodd" d="M159.464 73.0829L159.451 76.1056H154.648V73.0829H159.464Z" fill="#5620C8"/>
<path fill-rule="evenodd" clip-rule="evenodd" d="M115.373 73.0829L115.364 76.1056H110.541L110.532 73.0829H115.373Z" fill="#5620C8"/>
<path fill-rule="evenodd" clip-rule="evenodd" d="M159.435 80.0637L159.416 84.8454C159.526 86.002 156.487 87.9251 152.089 90.1745L152.036 84.8225L154.648 82.9154V80.0637H159.435Z" fill="#5620C8"/>
<path fill-rule="evenodd" clip-rule="evenodd" d="M115.353 80.0637L115.344 82.7967L119.578 85.1829L119.519 62.9355L125.081 59.8123L145.405 78.5032L145.583 60.4944L150.353 63.2366L150.294 91.2056C150.294 91.2056 138.903 97.9173 136.159 99.2587C135.463 99.5986 134.514 99.6283 133.832 99.2587C129.566 96.9454 113.389 88.4201 110.567 85.386L110.551 80.0637H115.353ZM124.586 88.5912L135.007 94.4428L145.3 88.5912L145.236 88.0688L124.586 68.6091V88.5912Z" fill="#5620C8"/>
<g filter="url(#filter0_f_3570_1991)">
<ellipse cx="134.531" cy="196" rx="87.0001" ry="85.5315" transform="rotate(90 134.531 196)" fill="#2259FF" fill-opacity="0.33"/>
</g>
</g>
<rect x="0.5" y="0.5" width="260" height="144" rx="9.5" stroke="#1E1E1E"/>
<defs>
<filter id="filter0_f_3570_1991" x="-27.2319" y="32.7681" width="323.526" height="326.464" filterUnits="userSpaceOnUse" color-interpolation-filters="sRGB">
<feFlood flood-opacity="0" result="BackgroundImageFix"/>
<feBlend mode="normal" in="SourceGraphic" in2="BackgroundImageFix" result="shape"/>
<feGaussianBlur stdDeviation="38.116" result="effect1_foregroundBlur_3570_1991"/>
</filter>
<linearGradient id="paint0_linear_3570_1991" x1="153.745" y1="39.7601" x2="113.067" y2="104.613" gradientUnits="userSpaceOnUse">
<stop stop-color="#1D93E8"/>
<stop offset="1" stop-color="#9A74FE"/>
</linearGradient>
<clipPath id="clip0_3570_1991">
<rect width="261" height="145" rx="10" fill="white"/>
</clipPath>
</defs>
</svg>
