<svg width="17309" height="1932" viewBox="0 0 17309 1932" fill="none" xmlns="http://www.w3.org/2000/svg">
<path d="M965.709 0C1499.05 0.000264283 1931.42 432.982 1931.42 966.328C1931.42 1483.14 1525.45 1905.71 1015.01 1931.42V822.349L469.661 1026.99V1795.52C188.302 1626.57 0 1318.3 0 966.328C0.000132089 432.982 432.363 0 965.709 0ZM1216.81 1172.59V1492.48H1345.57V1172.59L1277.4 1073.73L1216.81 1172.59ZM844.582 288.052V564.573L753.667 596.854V344.897L583.246 401.741V657.364L481.009 693.665V447.224L310.588 504.067V992.919L1015 731.438V685.959H1015V231.207L844.582 288.052ZM1606.15 390.396C1606.15 381.304 1469.82 469.978 1401.65 515.452V651.878L1606.15 742.828V390.396ZM1310.36 322.661C1310.36 315.636 1189.17 384.161 1128.58 419.302V524.727L1310.36 595.011V322.661Z" fill="#7BB8FF"/>
<path d="M697.461 1172.54L758.054 1073.68L826.223 1172.54V1492.43H697.461V1172.54Z" fill="#7AB8FE"/>
<path d="M2914.93 564.71V1502.2H2639.19V564.71H2914.93ZM3233.7 559.33V626.582H2320.42V559.33H3233.7ZM3233.7 622.547V812.198L3220.25 810.853V801.437C3220.25 747.636 3205.01 705.491 3174.52 675.003C3144.03 643.619 3101.44 627.479 3046.74 626.582V622.547H3233.7ZM3233.7 535.119V574.125L3069.61 559.33C3089.33 559.33 3109.96 557.985 3131.48 555.295C3153.9 552.605 3174.52 549.466 3193.35 545.88C3212.18 542.293 3225.63 538.706 3233.7 535.119ZM2643.23 1404.02V1502.2H2535.63V1488.75C2535.63 1488.75 2538.32 1488.75 2543.7 1488.75C2549.97 1488.75 2553.11 1488.75 2553.11 1488.75C2576.43 1488.75 2596.15 1480.68 2612.29 1464.54C2629.33 1447.5 2638.3 1427.33 2639.19 1404.02H2643.23ZM2910.89 1404.02H2914.93C2915.82 1427.33 2924.34 1447.5 2940.48 1464.54C2957.52 1480.68 2977.7 1488.75 3001.01 1488.75C3001.01 1488.75 3003.7 1488.75 3009.08 1488.75C3015.36 1488.75 3018.49 1488.75 3018.49 1488.75V1502.2H2910.89V1404.02ZM2507.38 622.547V626.582C2452.68 627.479 2410.09 643.619 2379.6 675.003C2349.11 705.491 2333.87 747.636 2333.87 801.437V810.853L2320.42 812.198V622.547H2507.38ZM2320.42 535.119C2329.39 538.706 2342.84 542.293 2360.77 545.88C2379.6 549.466 2400.22 552.605 2422.64 555.295C2445.06 557.985 2465.68 559.33 2484.51 559.33L2320.42 574.125V535.119ZM3723.38 679.039C3800.5 679.039 3869.09 688.454 3929.17 707.284C3990.15 726.115 4041.71 753.464 4083.85 789.332C4126.89 825.2 4159.17 869.138 4180.69 921.146C4203.11 973.154 4214.32 1032.78 4214.32 1100.04C4214.32 1166.39 4203.11 1225.57 4180.69 1277.58C4159.17 1328.69 4126.89 1372.18 4083.85 1408.05C4041.71 1443.92 3990.15 1471.27 3929.17 1490.1C3869.09 1508.93 3800.5 1518.34 3723.38 1518.34C3647.16 1518.34 3578.56 1508.93 3517.59 1490.1C3457.51 1471.27 3405.95 1443.92 3362.91 1408.05C3320.76 1372.18 3288.48 1328.69 3266.07 1277.58C3244.55 1225.57 3233.79 1166.39 3233.79 1100.04C3233.79 1032.78 3244.55 973.154 3266.07 921.146C3288.48 869.138 3320.76 825.2 3362.91 789.332C3405.95 753.464 3457.51 726.115 3517.59 707.284C3578.56 688.454 3647.16 679.039 3723.38 679.039ZM3723.38 1457.82C3770.9 1457.82 3810.36 1443.92 3841.74 1416.12C3874.02 1387.43 3898.24 1346.63 3914.38 1293.72C3930.52 1239.92 3938.59 1175.36 3938.59 1100.04C3938.59 1023.82 3930.52 958.807 3914.38 905.005C3898.24 851.204 3874.02 810.404 3841.74 782.607C3810.36 753.912 3770.9 739.565 3723.38 739.565C3676.75 739.565 3637.3 753.912 3605.02 782.607C3573.63 810.404 3549.42 851.204 3532.38 905.005C3516.24 958.807 3508.17 1023.82 3508.17 1100.04C3508.17 1175.36 3516.24 1239.92 3532.38 1293.72C3549.42 1346.63 3573.63 1387.43 3605.02 1416.12C3637.3 1443.92 3676.75 1457.82 3723.38 1457.82ZM4251.89 703.249H4526.27L4683.64 1063.72L4567.97 1515.65L4251.89 703.249ZM4884.06 677.694L4917.68 810.853L4611.01 1389.22C4611.01 1389.22 4608.32 1395.5 4602.94 1408.05C4597.56 1419.71 4592.18 1435.4 4586.8 1455.13C4581.42 1473.96 4578.73 1494.13 4578.73 1515.65H4567.97L4524.93 1347.52L4874.64 677.694H4884.06ZM4884.06 677.694L5151.72 1125.59L5068.33 1515.65L4768.38 1008.57L4884.06 677.694ZM5313.12 703.249L5093.88 1389.22C5093.88 1389.22 5092.09 1395.94 5088.5 1409.4C5084.91 1421.95 5081.78 1438.09 5079.09 1457.82C5076.4 1477.54 5076.4 1496.82 5079.09 1515.65H5068.33L5017.21 1402.67L5220.32 703.249H5313.12ZM5198.79 777.226C5204.17 753.913 5201.93 736.875 5192.07 726.115C5182.21 714.458 5169.2 708.629 5153.06 708.629H5143.65V695.179H5400.55V708.629C5400.55 708.629 5398.76 708.629 5395.17 708.629C5392.48 708.629 5391.14 708.629 5391.14 708.629C5374.1 708.629 5354.82 714.01 5333.3 724.77C5311.78 734.634 5296.98 752.567 5288.91 778.572L5198.79 777.226ZM4558.56 778.572H4280.13C4270.27 752.567 4255.47 734.634 4235.75 724.77C4216.02 714.01 4197.19 708.629 4179.25 708.629C4179.25 708.629 4177.91 708.629 4175.22 708.629C4171.63 708.629 4169.84 708.629 4169.84 708.629V695.179H4612.36V708.629H4600.25C4585.9 708.629 4572.9 714.458 4561.25 726.115C4550.49 737.772 4549.59 755.258 4558.56 778.572ZM5733.56 695.179V1502.2H5469.94V695.179H5733.56ZM6017.37 1440.33L6071.17 1502.2H5730.87V1440.33H6017.37ZM5983.74 1073.14V1136.35H5730.87V1073.14H5983.74ZM6042.92 695.179V757.051H5730.87V695.179H6042.92ZM6111.52 1219.74L6073.86 1502.2H5823.68L5862.69 1440.33C5897.66 1440.33 5930.84 1431.81 5962.22 1414.78C5994.5 1396.84 6022.75 1371.73 6046.96 1339.45C6071.17 1306.28 6088.65 1266.37 6099.41 1219.74H6111.52ZM5983.74 1133.66V1278.93H5970.29V1273.55C5970.29 1234.09 5957.74 1201.81 5932.63 1176.7C5908.42 1150.7 5876.59 1137.25 5837.13 1136.35V1133.66H5983.74ZM5983.74 931.906V1075.83H5837.13V1073.14C5876.59 1072.24 5908.42 1058.79 5932.63 1032.78C5957.74 1006.78 5970.29 974.051 5970.29 934.596V931.906H5983.74ZM6042.92 754.361V929.216H6029.47V922.491C6029.47 870.483 6016.02 830.131 5989.12 801.437C5962.22 772.743 5923.21 757.948 5872.1 757.051V754.361H6042.92ZM6042.92 675.003V707.284L5909.76 695.179C5933.97 695.179 5959.53 692.937 5986.43 688.454C6014.23 683.074 6033.06 678.59 6042.92 675.003ZM5473.97 1418.81L5472.63 1502.2H5385.2V1488.75C5385.2 1488.75 5387.44 1488.75 5391.92 1488.75C5396.41 1488.75 5399.1 1488.75 5399.99 1488.75C5418.82 1488.75 5434.96 1482.03 5448.41 1468.58C5462.76 1455.13 5469.94 1438.54 5469.94 1418.81H5473.97ZM5473.97 779.917H5469.94C5469.94 759.293 5462.76 742.255 5448.41 728.805C5434.96 715.355 5418.82 708.629 5399.99 708.629C5399.1 708.629 5396.41 708.629 5391.92 708.629C5387.44 708.629 5385.2 708.629 5385.2 708.629V695.179H5472.63L5473.97 779.917ZM6511.26 695.179H6636.35C6670.42 695.179 6705.39 698.317 6741.26 704.594C6777.13 709.975 6810.31 720.286 6840.79 735.53C6871.28 750.774 6895.94 773.191 6914.77 802.782C6933.6 831.476 6943.02 869.586 6943.02 917.111C6943.02 944.011 6938.09 972.706 6928.22 1003.19C6919.25 1033.68 6902.22 1061.03 6877.11 1085.24C6852.9 1108.55 6817.48 1124.25 6770.85 1132.32C6804.93 1141.28 6834.97 1158.32 6860.97 1183.43C6886.97 1208.54 6905.8 1231.4 6917.46 1252.03C6923.74 1262.79 6930.46 1276.24 6937.64 1292.38C6945.71 1307.62 6955.12 1324.66 6965.88 1343.49C6976.64 1362.32 6988.75 1382.49 7002.2 1404.02C7019.24 1430.02 7034.03 1449.3 7046.59 1461.85C7059.14 1473.51 7071.24 1481.13 7082.9 1484.72C7094.56 1487.41 7107.56 1488.75 7121.91 1488.75V1502.2H6963.19C6915.67 1502.2 6874.42 1500.41 6839.45 1496.82C6804.48 1492.34 6773.09 1480.68 6745.3 1461.85C6718.4 1442.12 6691.94 1410.29 6665.94 1366.35C6656.08 1349.32 6647.56 1333.62 6640.38 1319.28C6634.11 1304.03 6628.73 1289.24 6624.24 1274.89C6619.76 1260.54 6615.72 1245.75 6612.14 1230.51C6609.45 1215.26 6606.31 1199.57 6602.72 1183.43C6596.45 1152.04 6588.37 1131.87 6578.51 1122.9C6568.65 1113.04 6561.92 1107.66 6558.34 1106.76V1096C6559.23 1096 6560.13 1096 6561.03 1096C6561.92 1096 6563.27 1096 6565.06 1096C6579.41 1096 6593.75 1091.52 6608.1 1082.55C6622.45 1073.58 6635 1058.79 6645.76 1038.16C6656.52 1016.64 6663.7 987.053 6667.28 949.392C6667.28 946.702 6667.73 941.77 6668.63 934.596C6669.53 927.423 6669.53 918.007 6668.63 906.35C6666.84 867.793 6660.11 838.65 6648.45 818.923C6636.8 798.299 6623.35 783.952 6608.1 775.881C6593.75 767.811 6580.75 763.328 6569.1 762.431C6557.44 760.638 6550.71 759.741 6548.92 759.741C6547.13 759.741 6544.89 759.741 6542.2 759.741C6540.4 759.741 6533.23 759.741 6520.67 759.741C6519.78 759.741 6518.43 754.361 6516.64 743.601C6515.74 732.84 6514.4 722.08 6512.6 711.32C6511.71 700.559 6511.26 695.179 6511.26 695.179ZM6522.02 695.179V1502.2H6257.05V695.179H6522.02ZM6261.08 1418.81L6259.74 1502.2H6173.65V1488.75C6175.45 1488.75 6177.24 1488.75 6179.03 1488.75C6181.72 1488.75 6184.86 1488.75 6188.45 1488.75C6206.38 1488.75 6222.08 1482.03 6235.53 1468.58C6249.87 1455.13 6257.05 1438.54 6257.05 1418.81H6261.08ZM6261.08 778.572H6257.05C6257.05 757.948 6250.32 741.359 6236.87 728.805C6223.42 715.355 6207.73 708.629 6189.79 708.629C6186.21 708.629 6183.07 708.629 6180.38 708.629C6177.69 708.629 6175.45 708.629 6173.65 708.629V695.179H6259.74L6261.08 778.572ZM6519.33 1418.81H6522.02C6522.02 1442.12 6530.09 1459.61 6546.23 1471.27C6562.37 1482.92 6578.06 1488.75 6593.31 1488.75C6593.31 1488.75 6594.65 1488.75 6597.34 1488.75C6600.03 1488.75 6602.72 1488.75 6605.41 1488.75V1502.2H6520.67L6519.33 1418.81Z" fill="white"/>
<path d="M9072.45 1231.65V1114.65H9207.51C9234.78 1114.65 9257.61 1109.26 9276 1098.48C9295.02 1087.7 9309.29 1072.8 9318.8 1053.77C9328.95 1034.75 9334.02 1012.87 9334.02 988.144C9334.02 963.413 9328.95 941.536 9318.8 922.512C9309.29 903.489 9295.02 888.904 9276 878.758C9257.61 867.978 9234.78 862.588 9207.51 862.588H9072.45V745.593H9196.1C9254.44 745.593 9303.9 755.105 9344.48 774.129C9385.7 793.152 9417.09 820.419 9438.65 855.93C9460.21 890.806 9470.99 932.341 9470.99 980.534V995.753C9470.99 1043.95 9460.21 1085.8 9438.65 1121.31C9417.09 1156.18 9385.7 1183.45 9344.48 1203.11C9303.9 1222.13 9254.44 1231.65 9196.1 1231.65H9072.45ZM8956.4 1444.71V745.593H9091.47V1444.71H8956.4ZM9582.47 1444.71V745.593H9717.54V1444.71H9582.47ZM10006.7 1444.71L9793.63 1142.23H9944.87L10164.6 1444.71H10006.7ZM9677.59 1212.62V1103.24H9854.51C9879.24 1103.24 9900.48 1098.16 9918.24 1088.02C9936.63 1077.87 9950.89 1063.6 9961.04 1045.21C9971.18 1026.82 9976.26 1005.9 9976.26 982.436C9976.26 958.34 9971.18 937.097 9961.04 918.708C9950.89 900.318 9936.63 886.05 9918.24 875.905C9900.48 865.759 9879.24 860.686 9854.51 860.686H9677.59V745.593H9840.24C9896.04 745.593 9944.23 753.837 9984.82 770.324C10026 786.811 10057.7 811.859 10079.9 845.467C10102.1 879.075 10113.2 921.244 10113.2 971.974V987.192C10113.2 1038.56 10101.8 1080.72 10079 1113.7C10056.8 1146.67 10025.4 1171.4 9984.82 1187.89C9944.23 1204.38 9896.04 1212.62 9840.24 1212.62H9677.59ZM10269 1444.71V750.349H10404V1444.71H10269ZM10733.3 1444.71L10511.7 750.349H10651.5L10835.1 1351.49L10795.1 1332.47H10897.9L10857 1351.49L11026.3 750.349H11161.3L10955.9 1444.71H10733.3ZM11157.2 1444.71L11394 750.349H11614.7L11858.2 1444.71H11719.3L11512.9 842.613L11561.4 863.539H11442.5L11492 842.613L11292.2 1444.71H11157.2ZM11322.7 1260.18L11365.5 1146.04H11647L11688.9 1260.18H11322.7ZM12247.3 1462.78C12184.6 1462.78 12130.7 1451.68 12085.6 1429.49C12040.6 1407.3 12003.8 1378.44 11975.3 1342.93C11947.4 1307.42 11926.8 1268.74 11913.5 1226.89C11900.2 1185.04 11893.5 1144.77 11893.5 1106.09V1085.16C11893.5 1042.04 11900.2 999.558 11913.5 957.706C11927.4 915.854 11948.7 877.807 11977.2 843.565C12005.7 809.322 12041.9 782.055 12085.6 761.763C12130 740.837 12182.3 730.374 12242.6 730.374C12305.4 730.374 12359.9 741.788 12406.2 764.617C12453.1 786.811 12490.5 818.517 12518.4 859.735C12546.3 900.318 12563.1 947.877 12568.8 1002.41H12432.8C12427.8 970.705 12416.3 944.072 12398.6 922.512C12381.5 900.318 12359.6 883.831 12332.9 873.051C12306.3 861.637 12276.2 855.93 12242.6 855.93C12208.3 855.93 12177.9 861.954 12151.3 874.002C12124.6 885.416 12102.4 901.903 12084.7 923.463C12066.9 945.024 12053.3 970.388 12043.8 999.558C12034.9 1028.73 12030.5 1061.07 12030.5 1096.58C12030.5 1130.82 12034.9 1162.53 12043.8 1191.7C12053.3 1220.87 12067.3 1246.55 12085.6 1268.74C12104 1290.3 12126.5 1307.11 12153.2 1319.15C12180.4 1331.2 12211.8 1337.23 12247.3 1337.23C12299.3 1337.23 12343.1 1324.54 12378.6 1299.18C12414.8 1273.18 12436.6 1237.04 12444.2 1190.74H12580.3C12573.9 1240.21 12557.1 1285.55 12529.8 1326.76C12502.6 1367.98 12465.2 1400.95 12417.6 1425.69C12370 1450.42 12313.3 1462.78 12247.3 1462.78ZM12821.8 1179.33L12612.6 750.349H12751.4L12911.2 1086.11L12880.8 1076.6H12971.2L12938.8 1086.11L13084.4 750.349H13215.6L13022.5 1179.33H12821.8ZM12856.1 1444.71V1158.4H12988.3V1444.71H12856.1ZM13633.3 1231.65V1114.65H13768.3C13795.6 1114.65 13818.4 1109.26 13836.8 1098.48C13855.8 1087.7 13870.1 1072.8 13879.6 1053.77C13889.8 1034.75 13894.8 1012.87 13894.8 988.144C13894.8 963.413 13889.8 941.536 13879.6 922.512C13870.1 903.489 13855.8 888.904 13836.8 878.758C13818.4 867.978 13795.6 862.588 13768.3 862.588H13633.3V745.593H13756.9C13815.3 745.593 13864.7 755.105 13905.3 774.129C13946.5 793.152 13977.9 820.419 13999.5 855.93C14021 890.806 14031.8 932.341 14031.8 980.534V995.753C14031.8 1043.95 14021 1085.8 13999.5 1121.31C13977.9 1156.18 13946.5 1183.45 13905.3 1203.11C13864.7 1222.13 13815.3 1231.65 13756.9 1231.65H13633.3ZM13517.2 1444.71V745.593H13652.3V1444.71H13517.2ZM14469.5 1462.78C14406.8 1462.78 14352.2 1451.68 14305.9 1429.49C14260.3 1407.3 14222.2 1378.44 14191.8 1342.93C14162 1306.79 14139.5 1268.11 14124.3 1226.89C14109.7 1185.04 14102.4 1144.77 14102.4 1106.09V1085.16C14102.4 1042.68 14110 1000.51 14125.2 958.657C14140.4 916.171 14163.3 877.807 14193.7 843.565C14224.8 809.322 14263.1 782.055 14308.8 761.763C14354.5 740.837 14408 730.374 14469.5 730.374C14530.4 730.374 14583.7 740.837 14629.3 761.763C14675 782.055 14713 809.322 14743.5 843.565C14774.6 877.807 14797.7 916.171 14812.9 958.657C14828.1 1000.51 14835.8 1042.68 14835.8 1085.16V1106.09C14835.8 1144.77 14828.1 1185.04 14812.9 1226.89C14798.3 1268.11 14775.8 1306.79 14745.4 1342.93C14715.6 1378.44 14677.5 1407.3 14631.2 1429.49C14585.6 1451.68 14531.7 1462.78 14469.5 1462.78ZM14469.5 1337.23C14505.1 1337.23 14536.8 1330.88 14564.7 1318.2C14593.2 1305.52 14617.3 1288.08 14637 1265.89C14657.2 1243.06 14672.5 1217.38 14682.6 1188.84C14693.4 1159.67 14698.8 1128.92 14698.8 1096.58C14698.8 1061.7 14693.4 1029.68 14682.6 1000.51C14672.5 971.339 14657.2 945.975 14637 924.415C14617.3 902.855 14593.2 886.05 14564.7 874.002C14536.1 861.954 14504.4 855.93 14469.5 855.93C14434 855.93 14402 861.954 14373.5 874.002C14344.9 886.05 14320.5 902.855 14300.2 924.415C14280.6 945.975 14265.4 971.339 14254.6 1000.51C14244.4 1029.68 14239.4 1061.7 14239.4 1096.58C14239.4 1128.92 14244.4 1159.67 14254.6 1188.84C14265.4 1217.38 14280.6 1243.06 14300.2 1265.89C14320.5 1288.08 14344.9 1305.52 14373.5 1318.2C14402 1330.88 14434 1337.23 14469.5 1337.23ZM14966.3 1444.71V750.349H15101.4V1444.71H14966.3ZM15082.3 1444.71V1325.81H15382V1444.71H15082.3ZM15493.9 1444.71V750.349H15629V1444.71H15493.9ZM16115.2 1462.78C16052.4 1462.78 15998.5 1451.68 15953.5 1429.49C15908.5 1407.3 15871.7 1378.44 15843.2 1342.93C15815.3 1307.42 15794.7 1268.74 15781.4 1226.89C15768 1185.04 15761.4 1144.77 15761.4 1106.09V1085.16C15761.4 1042.04 15768 999.558 15781.4 957.706C15795.3 915.854 15816.5 877.807 15845.1 843.565C15873.6 809.322 15909.8 782.055 15953.5 761.763C15997.9 740.837 16050.2 730.374 16110.5 730.374C16173.2 730.374 16227.8 741.788 16274.1 764.617C16321 786.811 16358.4 818.517 16386.3 859.735C16414.2 900.318 16431 947.877 16436.7 1002.41H16300.7C16295.6 970.705 16284.2 944.072 16266.5 922.512C16249.3 900.318 16227.5 883.831 16200.8 873.051C16174.2 861.637 16144.1 855.93 16110.5 855.93C16076.2 855.93 16045.8 861.954 16019.2 874.002C15992.5 885.416 15970.3 901.903 15952.6 923.463C15934.8 945.024 15921.2 970.388 15911.7 999.558C15902.8 1028.73 15898.4 1061.07 15898.4 1096.58C15898.4 1130.82 15902.8 1162.53 15911.7 1191.7C15921.2 1220.87 15935.1 1246.55 15953.5 1268.74C15971.9 1290.3 15994.4 1307.11 16021.1 1319.15C16048.3 1331.2 16079.7 1337.23 16115.2 1337.23C16167.2 1337.23 16211 1324.54 16246.5 1299.18C16282.6 1273.18 16304.5 1237.04 16312.1 1190.74H16448.1C16441.8 1240.21 16425 1285.55 16397.7 1326.76C16370.5 1367.98 16333 1400.95 16285.5 1425.69C16237.9 1450.42 16181.2 1462.78 16115.2 1462.78ZM16689.7 1179.33L16480.4 750.349H16619.3L16779.1 1086.11L16748.7 1076.6H16839L16806.7 1086.11L16952.2 750.349H17083.5L16890.4 1179.33H16689.7ZM16723.9 1444.71V1158.4H16856.2V1444.71H16723.9Z" fill="white"/>
<line x1="7925.51" y1="536.508" x2="7925.51" y2="1609.52" stroke="white" stroke-width="77.7932"/>
</svg>
