<svg width="440" height="440" viewBox="0 0 440 440" fill="none" xmlns="http://www.w3.org/2000/svg">
<path d="M219.682 0C341.009 0 439.363 98.4954 439.363 219.822C439.363 337.393 347.005 433.523 230.883 439.363V187.07L106.824 233.622V408.439C42.8285 370.003 5.44321e-06 299.884 0 219.822C0 98.4954 98.3548 0.000107361 219.682 0ZM276.771 266.746V339.517H306.062V266.746L290.556 244.258L276.771 266.746ZM192.113 65.5244V128.43L171.437 135.771V78.4531L132.668 91.3838V149.536L109.411 157.794V101.727L70.6426 114.657V225.869L230.885 166.388V114.664L230.882 114.665V52.5938L192.113 65.5244ZM365.359 88.8037C365.355 86.7378 334.344 106.908 318.838 117.252V148.287L365.359 168.977V88.8037ZM298.081 73.3955C298.081 71.7968 270.513 87.3858 256.729 95.3799V119.362L298.081 135.351V73.3955Z" fill="#7BB8FF"/>
<path d="M158.662 266.738L172.446 244.25L187.953 266.738V339.508H158.662V266.738Z" fill="#7AB8FE"/>
</svg>
