<svg width="81" height="36" viewBox="0 0 81 36" fill="none" xmlns="http://www.w3.org/2000/svg">
<rect x="1" y="1" width="33.1388" height="33.1388" rx="16.5694" fill="#3E73C4"/>
<rect x="1" y="1" width="33.1388" height="33.1388" rx="16.5694" stroke="#1F2022" stroke-width="2"/>
<path d="M21.8084 19.4737C21.8084 17.4069 20.5629 16.6985 18.0718 16.4026C16.293 16.1662 15.9378 15.6942 15.9378 14.8671C15.9378 14.04 16.5314 13.5087 17.7166 13.5087C18.7841 13.5087 19.3777 13.8629 19.6735 14.7494C19.7043 14.8351 19.7607 14.9093 19.8349 14.962C19.9092 15.0147 19.9979 15.0434 20.089 15.0442H21.0377C21.0925 15.0457 21.1471 15.036 21.198 15.0157C21.249 14.9955 21.2953 14.9651 21.3341 14.9265C21.373 14.8878 21.4036 14.8416 21.424 14.7908C21.4445 14.7399 21.4545 14.6854 21.4533 14.6306V14.5723C21.3373 13.9309 21.0128 13.3458 20.5301 12.9078C20.0475 12.4698 19.4337 12.2035 18.7841 12.1502V10.7334C18.7841 10.497 18.606 10.3199 18.3102 10.2605H17.4198C17.1833 10.2605 17.0053 10.4376 16.9459 10.7334V12.0919C15.1661 12.3273 14.0403 13.5087 14.0403 14.9858C14.0403 16.9339 15.2255 17.7017 17.7166 17.9975C19.3777 18.2924 19.9109 18.6476 19.9109 19.5924C19.9109 20.5363 19.0809 21.1863 17.954 21.1863C16.4117 21.1863 15.8784 20.5373 15.7004 19.6508C15.642 19.4153 15.4629 19.2966 15.2848 19.2966H14.2767C14.222 19.2953 14.1676 19.3051 14.1168 19.3254C14.0659 19.3457 14.0197 19.3761 13.981 19.4147C13.9422 19.4534 13.9117 19.4995 13.8913 19.5503C13.8709 19.601 13.861 19.6554 13.8622 19.7102V19.7685C14.0986 21.2457 15.0484 22.3083 17.0053 22.6041V24.0219C17.0053 24.2574 17.1833 24.4355 17.4792 24.4939H18.3695C18.606 24.4939 18.7841 24.3168 18.8434 24.0219V22.6032C20.6232 22.3083 21.8084 21.0676 21.8084 19.4727V19.4737Z" fill="white"/>
<path d="M14.8687 25.6755C10.2426 24.0212 7.87025 18.8833 9.59067 14.3361C10.4801 11.8547 12.437 9.96592 14.8687 9.07944C15.1061 8.96169 15.2239 8.78459 15.2239 8.48877V7.66165C15.2239 7.42616 15.1061 7.24906 14.8687 7.1897C14.8093 7.1897 14.6906 7.1897 14.6313 7.24808C13.2966 7.66488 12.0576 8.34157 10.9855 9.23919C9.91346 10.1368 9.02954 11.2376 8.38467 12.4783C7.73979 13.7189 7.3467 15.0748 7.22802 16.468C7.10934 17.8612 7.26741 19.2641 7.69315 20.5959C8.75965 23.9044 11.3101 26.4442 14.6313 27.5068C14.8687 27.6246 15.1061 27.5068 15.1645 27.2704C15.2239 27.212 15.2239 27.1516 15.2239 27.0339V26.2068C15.2239 26.0297 15.0468 25.7942 14.8687 25.6755ZM21.1549 7.24906C20.9174 7.13034 20.68 7.24906 20.6216 7.48454C20.5622 7.5439 20.5622 7.60326 20.5622 7.721V8.54813C20.5622 8.78459 20.7393 9.02008 20.9174 9.13879C25.5435 10.793 27.9159 15.931 26.1955 20.4782C25.3061 22.9596 23.3492 24.8483 20.9174 25.7348C20.68 25.8526 20.5622 26.0297 20.5622 26.3255V27.1526C20.5622 27.3881 20.68 27.5652 20.9174 27.6246C20.9768 27.6246 21.0955 27.6246 21.1549 27.5662C22.4895 27.1494 23.7286 26.4727 24.8006 25.5751C25.8727 24.6775 26.7566 23.5766 27.4015 22.336C28.0463 21.0954 28.4394 19.7394 28.5581 18.3462C28.6768 16.9531 28.5187 15.5502 28.093 14.2183C27.0265 10.8514 24.4167 8.31167 21.1549 7.24906Z" fill="white"/>
<rect x="22.1389" y="1.13892" width="34" height="33" rx="16.5" stroke="#1F2022" stroke-width="2"/>
<path d="M38.7227 33.1712C40.7692 33.1712 42.7956 32.7681 44.6863 31.9849C46.5771 31.2018 48.295 30.0539 49.7421 28.6068C51.1892 27.1597 52.3371 25.4417 53.1203 23.551C53.9035 21.6603 54.3065 19.6338 54.3065 17.5873C54.3065 15.5408 53.9035 13.5143 53.1203 11.6236C52.3371 9.73289 51.1892 8.01493 49.7421 6.56783C48.295 5.12073 46.5771 3.97283 44.6863 3.18967C42.7956 2.40651 40.7692 2.00342 38.7227 2.00342C34.5895 2.00342 30.6257 3.64529 27.7032 6.56783C24.7806 9.49038 23.1388 13.4542 23.1388 17.5873C23.1388 21.7204 24.7806 25.6842 27.7032 28.6068C30.6257 31.5293 34.5895 33.1712 38.7227 33.1712Z" fill="#0B53BF"/>
<path d="M42.0289 21.2986C41.3507 21.5731 40.6272 21.7187 39.8957 21.7281C38.4862 21.7281 37.1598 21.1272 36.5243 19.6831H39.6238L40.2264 18.2217H36.1642C36.1254 17.8001 36.1254 17.3758 36.1642 16.9542H40.7424L41.3467 15.4945H36.5243C37.1598 14.0487 38.4862 13.4478 39.8957 13.4478C40.6056 13.4478 41.3467 13.6037 42.0289 13.8772L42.6523 12.3968C41.8091 11.9627 40.8735 11.7387 39.9251 11.744C37.6446 11.744 35.3382 13.0184 34.5054 15.4945H33.0093V16.9542H34.2041C34.1653 17.3758 34.1653 17.8001 34.2041 18.2217H33.0093V19.6831H34.5036C35.3382 22.1575 37.6446 23.4319 39.9234 23.4319C40.8723 23.4374 41.8085 23.2135 42.6523 22.7791L42.0289 21.2986Z" fill="white" stroke="#0B53BF" stroke-width="0.0496871" stroke-miterlimit="10"/>
<path d="M28.9796 17.5875C28.981 15.4929 29.6559 13.4541 30.9046 11.7724C32.1533 10.0906 33.9097 8.85484 35.9144 8.2476V6.23901C33.3771 6.86318 31.1226 8.32079 29.5121 10.3784C27.9015 12.436 27.0281 14.9746 27.0316 17.5875C27.0285 20.2002 27.9021 22.7384 29.5126 24.7956C31.1231 26.8529 33.3774 28.3103 35.9144 28.9343V26.9275C33.9082 26.3227 32.1503 25.0876 30.9012 23.4053C29.6521 21.7229 28.9782 19.6829 28.9796 17.5875ZM41.5246 6.24075V8.2476C43.5293 8.85484 45.2857 10.0906 46.5344 11.7724C47.7831 13.4541 48.458 15.4929 48.4594 17.5875C48.458 19.6822 47.7831 21.721 46.5344 23.4027C45.2857 25.0845 43.5293 26.3203 41.5246 26.9275V28.9361C44.0619 28.3119 46.3164 26.8543 47.927 24.7967C49.5375 22.7391 50.411 20.2005 50.4074 17.5875C50.4106 14.9749 49.5369 12.4367 47.9264 10.3794C46.3159 8.32219 44.0617 6.86484 41.5246 6.24075Z" fill="white" stroke="#0B53BF" stroke-width="0.0496871" stroke-miterlimit="10"/>
<rect x="44.1389" y="1" width="33.1352" height="33.1388" rx="16.5676" stroke="#1F2022" stroke-width="2"/>
<path d="M75.8082 21.336C73.7285 29.6767 65.2792 34.7524 56.9364 32.6729C48.5976 30.5934 43.5209 22.1451 45.6011 13.8048C47.6799 5.46301 56.1287 0.38643 64.469 2.46591C72.8113 4.54539 77.8879 12.9947 75.8082 21.336Z" fill="url(#paint0_linear_2194_1917)"/>
<path d="M64.9256 15.0726C64.7695 13.703 63.577 13.2638 62.0793 13.1589L62.046 11.2559L60.8872 11.2763L60.9196 13.1292C60.6154 13.1344 60.3042 13.1459 59.995 13.1574L59.9626 11.2923L58.8047 11.3125L58.8375 13.215C58.5868 13.2245 58.3405 13.2334 58.1004 13.2378L58.1001 13.2319L56.5023 13.2592L56.5242 14.4964C56.5242 14.4964 57.3794 14.4651 57.3654 14.4811C57.8347 14.4731 57.9925 14.7427 58.0407 14.9771L58.0786 17.145C58.111 17.1447 58.1533 17.1453 58.2012 17.151L58.0792 17.1532L58.1316 20.1904C58.1136 20.3384 58.0309 20.5754 57.703 20.5816C57.7181 20.5945 56.8609 20.5961 56.8609 20.5961L56.6549 21.9838L58.1629 21.9574C58.4434 21.9528 58.7196 21.9527 58.9903 21.9498L59.0245 23.8748L60.1817 23.8548L60.1488 21.9504C60.4663 21.9515 60.7739 21.9486 61.074 21.9431L61.1066 23.8387L62.2651 23.8184L62.232 21.8971C64.1777 21.7514 65.5326 21.2369 65.6694 19.4056C65.7804 17.9306 65.0764 17.2856 63.9661 17.0391C64.6317 16.6848 65.0414 16.0748 64.9256 15.0726ZM63.3764 19.2165C63.4018 20.6549 60.9362 20.5345 60.1507 20.5487L60.1065 17.9986C60.8919 17.9851 63.3494 17.7165 63.3764 19.2165ZM62.7744 15.6281C62.7969 16.9367 60.7401 16.8198 60.0858 16.8314L60.0455 14.5185C60.6998 14.507 62.7508 14.2631 62.7744 15.6281Z" fill="white"/>
<path d="M60.7034 5.81006C67.1918 5.81026 72.4514 11.0695 72.4514 17.5571C72.4514 24.0447 67.1917 29.304 60.7034 29.3042C54.2149 29.3042 48.9545 24.0448 48.9544 17.5571C48.9544 11.0693 54.2148 5.81006 60.7034 5.81006ZM60.7034 7.70947C55.2641 7.70947 50.8548 12.1185 50.8548 17.5571C50.8549 22.9957 55.2642 27.4048 60.7034 27.4048C66.1424 27.4046 70.5519 22.9955 70.552 17.5571C70.552 12.1186 66.1425 7.70968 60.7034 7.70947Z" fill="white"/>
<rect x="65.524" y="19.7588" width="14.13" height="14.13" rx="7.065" fill="url(#paint1_linear_2194_1917)"/>
<rect x="65.524" y="19.7588" width="14.13" height="14.13" rx="7.065" stroke="#191A1C" stroke-width="1.5"/>
<path d="M72.5164 24.607C71.7003 24.607 70.5306 27.7354 70.5306 30.2381H69.3336C69.3064 29.1771 69.8233 23.4645 72.5164 23.4101C75.2095 23.3557 75.944 28.9595 75.8352 30.2381C74.4424 29.2152 72.734 29.2678 72.0539 29.422C72.0539 29.3495 72.0811 28.9976 72.19 28.1706C72.4076 28.1271 73.8403 28.2795 74.5294 28.3611C73.9582 25.804 73.3325 24.607 72.5164 24.607Z" fill="url(#paint2_linear_2194_1917)"/>
<defs>
<linearGradient id="paint0_linear_2194_1917" x1="68.7775" y1="3.04678" x2="51.0994" y2="31.2342" gradientUnits="userSpaceOnUse">
<stop stop-color="#1D93E8"/>
<stop offset="1" stop-color="#9A74FE"/>
</linearGradient>
<linearGradient id="paint1_linear_2194_1917" x1="72.9048" y1="20.193" x2="72.9048" y2="49.8735" gradientUnits="userSpaceOnUse">
<stop stop-color="#000F26"/>
<stop offset="1" stop-color="#4BACF4"/>
</linearGradient>
<linearGradient id="paint2_linear_2194_1917" x1="72.589" y1="23.4097" x2="73.4184" y2="32.1548" gradientUnits="userSpaceOnUse">
<stop stop-color="white"/>
<stop offset="1" stop-color="#7E93A6"/>
</linearGradient>
</defs>
</svg>
